<?xml version="1.0" encoding="iso-8859-1"?>
<!-- Generator: Adobe Illustrator 19.0.0, SVG Export Plug-In . SVG Version: 6.00 Build 0)  -->
<svg xmlns="http://www.w3.org/2000/svg" xmlns:xlink="http://www.w3.org/1999/xlink" version="1.1" id="Layer_1" x="0px" y="0px" viewBox="0 0 512 512" style="enable-background:new 0 0 512 512;" xml:space="preserve" width="512px" height="512px">
<g>
	<g>
		<path d="M506.435,250.435c0-68.969-28.025-131.513-73.284-176.848c-0.05-0.051-0.092-0.108-0.144-0.159    c-0.051-0.051-0.108-0.094-0.159-0.144C387.513,28.025,324.969,0,256,0S124.487,28.025,79.152,73.284    c-0.051,0.05-0.108,0.092-0.159,0.144c-0.051,0.051-0.094,0.107-0.144,0.159C33.591,118.922,5.565,181.466,5.565,250.435    c0,32.238,6.046,63.491,17.949,93.073C12.289,357.726,5.565,375.652,5.565,395.13c0,41.173,29.97,75.455,69.234,82.237    C81.329,497.444,100.21,512,122.435,512c27.618,0,50.087-22.469,50.087-50.087V328.348c0-27.618-22.469-50.087-50.087-50.087    c-4.762,0-9.364,0.682-13.732,1.929c-1.966-9.745-2.964-19.694-2.964-29.755c0-41.367,16.805-78.883,43.944-106.082    c0.04-0.039,0.083-0.072,0.124-0.111c0.04-0.039,0.072-0.083,0.111-0.124c27.199-27.139,64.715-43.944,106.082-43.944    c41.363,0,78.875,16.801,106.073,43.935c0.042,0.043,0.077,0.09,0.12,0.132s0.09,0.078,0.132,0.12    c27.134,27.198,43.935,64.71,43.935,106.073c0,10.061-0.998,20.01-2.964,29.755c-4.368-1.247-8.97-1.929-13.732-1.929    c-27.618,0-50.087,22.469-50.087,50.087v133.565c0,27.618,22.469,50.087,50.087,50.087c22.225,0,41.106-14.556,47.636-34.632    c39.264-6.782,69.234-41.065,69.234-82.237c0-19.478-6.724-37.405-17.949-51.623C500.389,313.926,506.435,282.673,506.435,250.435    z M406.261,461.913c0,9.206-7.49,16.696-16.696,16.696c-9.206,0-16.696-7.49-16.696-16.696V328.348    c0-9.206,7.49-16.696,16.696-16.696c9.206,0,16.696,7.49,16.696,16.696V461.913z M72.348,442.345    c-19.433-6.891-33.391-25.449-33.391-47.214s13.959-40.323,33.391-47.215V442.345z M122.435,311.652    c9.206,0,16.696,7.49,16.696,16.696v133.565c0,9.206-7.49,16.696-16.696,16.696c-9.206,0-16.696-7.49-16.696-16.696V328.348    C105.739,319.142,113.229,311.652,122.435,311.652z M72.348,250.435c0,17.618,2.5,34.97,7.422,51.711    c-2.061,3.344-3.734,6.948-4.971,10.748c-8.531,1.474-16.62,4.244-24.062,8.104c-7.812-22.607-11.78-46.257-11.78-70.562    c0-53.842,19.715-103.162,52.295-141.137l23.681,23.681C88.36,164.84,72.348,205.801,72.348,250.435z M256,66.783    c-44.634,0-85.595,16.012-117.456,42.585l-23.681-23.681C152.838,53.107,202.158,33.391,256,33.391s103.162,19.715,141.137,52.295    l-23.681,23.681C341.595,82.795,300.634,66.783,256,66.783z M439.652,442.346v-94.431c19.433,6.892,33.391,25.45,33.391,47.215    S459.085,435.454,439.652,442.346z M461.263,320.997c-7.442-3.861-15.53-6.631-24.062-8.104    c-1.237-3.801-2.911-7.405-4.971-10.748c4.922-16.741,7.422-34.092,7.422-51.711c0-44.634-16.012-85.595-42.585-117.456    l23.681-23.681c32.58,37.975,52.295,87.295,52.295,141.137C473.043,274.74,469.075,298.39,461.263,320.997z" fill="#FFFFFF"/>
	</g>
</g>
<g>
	<g>
		<path d="M289.391,411.826h-26.476l38.281-38.282c4.775-4.775,6.203-11.956,3.62-18.195c-2.584-6.239-8.673-10.307-15.425-10.307    h-66.783c-9.22,0-16.696,7.475-16.696,16.696s7.475,16.696,16.696,16.696h26.476l-38.281,38.282    c-4.775,4.775-6.203,11.956-3.62,18.195c2.584,6.239,8.673,10.307,15.425,10.307h66.783c9.22,0,16.696-7.475,16.696-16.696    S298.612,411.826,289.391,411.826z" fill="#FFFFFF"/>
	</g>
</g>
<g>
</g>
<g>
</g>
<g>
</g>
<g>
</g>
<g>
</g>
<g>
</g>
<g>
</g>
<g>
</g>
<g>
</g>
<g>
</g>
<g>
</g>
<g>
</g>
<g>
</g>
<g>
</g>
<g>
</g>
</svg>
